<?xml version="1.0" encoding="utf-8"?>
<svg version="1.1" id="Layer_1"
xmlns="http://www.w3.org/2000/svg"
xmlns:xlink="http://www.w3.org/1999/xlink"
width="25px" height="25px"
xml:space="preserve">
<g id="PathID_21" transform="matrix(0.182247, 0, 0, 0.842429, 12.35, 11.95)" opacity="1">
<path style="fill:#FFFFFF;fill-opacity:1" d="M53.6 -2.1Q54.5 -1.2 54.5 0Q54.5 1.2 53.6 2.1Q52.7 3 51.5 3L-51.5 3Q-52.7 3 -53.6 2.1Q-54.5 1.2 -54.5 0Q-54.5 -1.2 -53.6 -2.1Q-52.7 -3 -51.5 -3L51.5 -3Q52.7 -3 53.6 -2.1" />
</g>
<g id="PathID_22" transform="matrix(0.182247, 0, 0, 0.842429, 12.35, 11.95)" opacity="1">
</g>
<g id="PathID_23" transform="matrix(0.150576, 0, 1.31638e-008, -0.150576, 1.2, 23.75)" opacity="1">
<path style="fill:#FF6E35;fill-opacity:1" d="M143.9 45.8L145.35 50.85L146.85 56.25L149 63.5L149.55 82.8L147.85 90.55L147.85 91.1Q147.3 94.2 146.35 97.4L142.45 107.6L134.85 119.85L127.85 128.1L122.5 132.95L113.7 139.25L110.3 141Q106.65 142.9 103.2 144.4L100.55 145.6L93.45 147.85L90.35 148.3L83.25 149.55L78.65 150L66.95 149.75L56 147.85L48.9 145.6L46.25 144.4Q42.8 142.9 39.7 141.3L35.75 139.25L32.6 136.9Q29.4 134.45 26.3 131.75L21.65 128.1L16.75 122.75L10.4 113.95L5.55 104.25L4.6 101.05Q3.1 97.4 2.35 93.55L1.2 90.1L0 82.8L0 67.45L1.2 59.85L5.55 45.8L10.4 36.05L21.65 21.9L29.95 14.8L42.05 7.3L46.25 6.1Q50.65 4.15 55.75 2.9L59.65 1.5L70.8 0L78.65 0L89.8 1.5L96.65 3.65Q97.4 3.65 98.15 4.15L103.95 5.8L110.5 9L122.5 17.05L127.85 21.9L134.85 30.15L140.75 39.15L143.9 45.8M132.95 63.5L16.3 63.5L16.3 86.7L132.95 86.7L132.95 63.5M0.95 69.4L1.2 67.25L0.95 67.45L0.95 69.4" />
</g>
<g id="PathID_24" transform="matrix(0.150576, 0, 1.31638e-008, -0.150576, 1.2, 23.75)" opacity="1">
</g>
</svg>
