<?xml version="1.0" encoding="utf-8"?>
<svg version="1.1" id="Layer_1"
xmlns="http://www.w3.org/2000/svg"
xmlns:xlink="http://www.w3.org/1999/xlink"
width="25px" height="25px"
xml:space="preserve">
<g id="PathID_25" transform="matrix(0.182247, 0, 0, 0.842429, 12.3, 11.95)" opacity="1">
<path style="fill:#FFFFFF;fill-opacity:1" d="M53.6 -2.1Q54.5 -1.2 54.5 0Q54.5 1.2 53.6 2.1Q52.7 3 51.5 3L-51.5 3Q-52.7 3 -53.6 2.1Q-54.5 1.2 -54.5 0Q-54.5 -1.2 -53.6 -2.1Q-52.7 -3 -51.5 -3L51.5 -3Q52.7 -3 53.6 -2.1" />
</g>
<g id="PathID_26" transform="matrix(0.182247, 0, 0, 0.842429, 12.3, 11.95)" opacity="1">
</g>
<g id="PathID_27" transform="matrix(0.134804, 0, -1.1785e-008, -0.134804, 12.4, 12.45)" opacity="1">
<path style="fill:#2BC23E;fill-opacity:1" d="M0 -22.25Q-9.15 -22.25 -15.65 -15.8L-15.8 -15.7Q-22.25 -9.15 -22.25 0Q-22.25 9.2 -15.75 15.75Q-9.2 22.25 0 22.25Q9.2 22.25 15.7 15.75L15.75 15.65Q22.3 9.15 22.3 0Q22.3 -9.25 15.75 -15.75Q9.25 -22.25 0 -22.25M59.25 -59.25Q83.8 -34.7 83.8 0Q83.8 34.7 59.3 59.15L59.2 59.3Q34.7 83.75 0 83.75Q-34.65 83.75 -59.2 59.2Q-83.75 34.7 -83.75 0Q-83.75 -34.7 -59.25 -59.25L-59.2 -59.3Q-34.65 -83.75 0 -83.75Q34.7 -83.75 59.25 -59.25" />
</g>
<g id="PathID_28" transform="matrix(0.134804, 0, -1.1785e-008, -0.134804, 12.4, 12.45)" opacity="1">
</g>
</svg>
