<?xml version="1.0" encoding="utf-8"?>
<svg version="1.1" id="Layer_1"
xmlns="http://www.w3.org/2000/svg"
xmlns:xlink="http://www.w3.org/1999/xlink"
width="25px" height="25px"
xml:space="preserve">
<g id="PathID_29" transform="matrix(0.179685, 0, 1.57086e-008, -0.179685, 12.4, 12.45)" opacity="1">
<path style="fill:#00B4F0;fill-opacity:1" d="M0 -43.15Q-17.9 -43.15 -30.5 -30.55L-30.55 -30.5Q-43.15 -17.9 -43.15 0Q-43.15 17.9 -30.55 30.5Q-17.9 43.15 0 43.15Q17.85 43.15 30.5 30.5Q43.2 17.85 43.2 0Q43.2 -17.9 30.5 -30.55Q17.9 -43.15 0 -43.15M44.4 -44.45Q62.85 -26 62.85 0Q62.85 26 44.5 44.4L44.4 44.45Q26.05 62.85 0 62.85Q-26 62.85 -44.45 44.4Q-62.85 26 -62.85 0Q-62.85 -26 -44.45 -44.45Q-26 -62.85 0 -62.85Q26.05 -62.85 44.4 -44.45" />
</g>
<g id="PathID_30" transform="matrix(0.179685, 0, 1.57086e-008, -0.179685, 12.4, 12.45)" opacity="1">
</g>
</svg>
